<svg xmlns="http://www.w3.org/2000/svg" viewBox="0 0 400 220" width="400" height="220" role="img" aria-label="Cloud Data Platform Modernization">
  <defs>
    <linearGradient id="cloudGradient" x1="0%" y1="0%" x2="100%" y2="100%">
      <stop offset="0%" stop-color="#1d4ed8"/>
      <stop offset="100%" stop-color="#132257"/>
    </linearGradient>
  </defs>
  <rect width="400" height="220" fill="url(#cloudGradient)"/>
  <path d="M140 150h150a34 34 0 0 0 0-68 3 3 0 0 1-3-2.4 54 54 0 0 0-104-16 40 40 0 0 0-43 41.6 3 3 0 0 1-2.4 3A29 29 0 0 0 140 150z"
        fill="#ffffff" fill-opacity="0.95"/>
  <g stroke="#1d4ed8" stroke-width="4" stroke-linecap="round" stroke-linejoin="round" fill="none">
    <path d="M186 118v34M186 152l-12-12M186 152l12-12"/>
    <path d="M226 118v34M226 152l-12-12M226 152l12-12"/>
  </g>
</svg>
